<?xml version="1.0" encoding="UTF-8" standalone="no"?>
<!-- Generator: Adobe Illustrator 16.0.0, SVG Export Plug-In . SVG Version: 6.00 Build 0)  -->

<svg
   xmlns:dc="http://purl.org/dc/elements/1.1/"
   xmlns:cc="http://creativecommons.org/ns#"
   xmlns:rdf="http://www.w3.org/1999/02/22-rdf-syntax-ns#"
   xmlns:svg="http://www.w3.org/2000/svg"
   xmlns="http://www.w3.org/2000/svg"
   xmlns:sodipodi="http://sodipodi.sourceforge.net/DTD/sodipodi-0.dtd"
   xmlns:inkscape="http://www.inkscape.org/namespaces/inkscape"
   version="1.1"
   id="Layer_1"
   x="0px"
   y="0px"
   width="913.542px"
   height="976.042px"
   viewBox="0 0 913.542 976.042"
   enable-background="new 0 0 913.542 976.042"
   xml:space="preserve"
   inkscape:version="0.91 r13725"
   sodipodi:docname="relax-colour.svg"><metadata
     id="metadata196758"><rdf:RDF><cc:Work
         rdf:about=""><dc:format>image/svg+xml</dc:format><dc:type
           rdf:resource="http://purl.org/dc/dcmitype/StillImage" /><dc:title></dc:title><dc:description>remix by j4p4n</dc:description><cc:license
           rdf:resource="http://creativecommons.org/publicdomain/zero/1.0/" /><dc:creator><cc:Agent><dc:title>cactus cowboy</dc:title></cc:Agent></dc:creator></cc:Work><cc:License
         rdf:about="http://creativecommons.org/publicdomain/zero/1.0/"><cc:permits
           rdf:resource="http://creativecommons.org/ns#Reproduction" /><cc:permits
           rdf:resource="http://creativecommons.org/ns#Distribution" /><cc:permits
           rdf:resource="http://creativecommons.org/ns#DerivativeWorks" /></cc:License></rdf:RDF></metadata><defs
     id="defs196756"><filter
       inkscape:collect="always"
       style="color-interpolation-filters:sRGB"
       id="filter197386"
       x="-0.1477373"
       width="1.2954746"
       y="-0.1248129"
       height="1.2496258"><feGaussianBlur
         inkscape:collect="always"
         stdDeviation="7.3595544"
         id="feGaussianBlur197388" /></filter><filter
       inkscape:collect="always"
       style="color-interpolation-filters:sRGB"
       id="filter197390"
       x="-0.12556066"
       width="1.2511213"
       y="-0.16726487"
       height="1.3345297"><feGaussianBlur
         inkscape:collect="always"
         stdDeviation="7.3595544"
         id="feGaussianBlur197392" /></filter><filter
       inkscape:collect="always"
       style="color-interpolation-filters:sRGB"
       id="filter197394"
       x="-0.25466978"
       width="1.5093396"
       y="-0.1901996"
       height="1.3803992"><feGaussianBlur
         inkscape:collect="always"
         stdDeviation="7.3595544"
         id="feGaussianBlur197396" /></filter><filter
       inkscape:collect="always"
       style="color-interpolation-filters:sRGB"
       id="filter197430"
       x="-0.2866897"
       width="1.5733794"
       y="-0.17086533"
       height="1.3417307"><feGaussianBlur
         inkscape:collect="always"
         stdDeviation="6.9628543"
         id="feGaussianBlur197432" /></filter><filter
       inkscape:collect="always"
       style="color-interpolation-filters:sRGB"
       id="filter197434"
       x="-0.074736853"
       width="1.1494737"
       y="-0.26856551"
       height="1.537131"><feGaussianBlur
         inkscape:collect="always"
         stdDeviation="6.9628543"
         id="feGaussianBlur197436" /></filter><filter
       inkscape:collect="always"
       style="color-interpolation-filters:sRGB"
       id="filter197454"
       x="-0.08974653"
       width="1.1794931"
       y="-0.10925999"
       height="1.21852"><feGaussianBlur
         inkscape:collect="always"
         stdDeviation="2.225952"
         id="feGaussianBlur197456" /></filter><filter
       inkscape:collect="always"
       style="color-interpolation-filters:sRGB"
       id="filter197458"
       x="-0.33500336"
       width="1.6700067"
       y="-0.15433204"
       height="1.3086641"><feGaussianBlur
         inkscape:collect="always"
         stdDeviation="2.225952"
         id="feGaussianBlur197460" /></filter></defs><sodipodi:namedview
     pagecolor="#ffffff"
     bordercolor="#666666"
     borderopacity="1"
     objecttolerance="10"
     gridtolerance="10"
     guidetolerance="10"
     inkscape:pageopacity="0"
     inkscape:pageshadow="2"
     inkscape:window-width="1916"
     inkscape:window-height="1035"
     id="namedview196754"
     showgrid="false"
     inkscape:zoom="0.49953522"
     inkscape:cx="386.04347"
     inkscape:cy="240.49409"
     inkscape:window-x="4"
     inkscape:window-y="1"
     inkscape:window-maximized="1"
     inkscape:current-layer="Layer_1" /><g
     id="g196248" /><g
     id="g197561"><path
       id="path196250"
       d="M858.429,471.211c23.78-8.676,50.357-24.25,49.59-51.221c-1.028-50.21-74.794-74.064-87.188-74.108   c-12.581,0.044-10.311-14.715-19.619-7.63c-8.855,6.539-8.855,8.809-16.891,10.897c-7.857,2.453-50.998,3.588-59.943,2.725   c-9.219-1.408-21.707-0.272-29.426,1.089h-17.438c0,0-20.252-71.747-27.246-85.552c-6.629-13.441-27.245-59.941-27.245-59.941   S635.69,67.789,581.063,45.083c-50.965-21.29-63.438-11.353-88.276-10.354c-25.113,1.271-60.487,9.265-60.487,9.265   s-15.712-32.969-46.318-37.6c-30.697-4.45-47.159-1.045-56.127,3.269c-9.195,4.769-16.574,11.012-22.342,11.988   c-5.585,1.294-22.614,13.783-23.977,19.618c-0.908,5.517-8.174,17.438-8.174,17.438c-4.654-1.135-201.621-19.3-223.417,12.533   C30.601,102.982,6.715,184.583,6.715,184.583S73.74,333.438,79.189,348.059c5.903,14.896,161.297,487.162,161.297,487.162   l38.689-2.179c0,0,0.824,7.258-9.264,13.623c-12.26,7.854-41.777,5.584-44.138,23.975l269.192,62.121   c0,0-4.589-28.289-17.982-32.696c-13.852-4.675-53.585-21.704-58.308-34.33c-1.909-5.607,98.088,3.816,98.088,3.816l240.311,50.677   c0,0-5.588-19.162-17.982-26.155c-12.581-6.63-65.938-21.388-85.009-39.778c-5.258-4.506-20.707-9.81-20.707-9.81l-1.092-13.623   l3.271-1.091l13.623-13.623l17.438,33.787c0,0,19.002-13.468,17.981-7.63c-3.499,16.756,4.448,34.921,12.533,44.139   c7.809,8.946,33.785,16.893,33.785,16.893l11.443-4.358c0,0,17.026,27.021,23.978,33.783c11.26,11.445,66.887,42.096,98.629,36.511   c31.832-5.766,27.247-16.893,27.247-16.893s-4.497-29.743-20.162-41.959c-16.122-12.76-38.827-46.817-45.773-58.309   c-6.677-11.215-2.136-22.567-16.895-27.244c-14.758-4.405,33.624-3.767,29.429-19.071c-4.452-17.121-7.63-30.519-7.63-30.519   l-3.816-244.122l0,0C827.366,531.155,861.438,517.406,858.429,471.211L858.429,471.211z"
       style="" /><path
       style="fill:#d6bf97;fill-opacity:1"
       id="path196252"
       d="M317.865,220.003l9.264-21.797v-7.628l-10.354-2.18l-3.269-7.084h-4.905c0,0-0.999-7.947-6.539-12.534   c-5.813-4.495-25.112-27.201-25.066-33.785c-0.046-7.039-9.127-17.256-8.174-26.156c1.317-9.263,4.359-41.959,4.359-41.959   S90.769,45.083,65.566,69.06c-24.749,23.704-25.611,45.228-25.611,45.228c4.268,23.886,31.514,69.296,41.959,83.918   c9.99,14.895,31.56,64.846,31.605,69.205c-0.045,4.723,58.988-17.982,78.469-14.712c19.118,3.542,39.779,10.354,39.779,10.354   s17.937-14.758,29.426-15.803c11.216-1.226,15.757-13.714,25.066-14.713C295.115,231.265,317.865,220.003,317.865,220.003   L317.865,220.003z"
       fill="#CCCCCC" /><path
       style="fill:#d6bf97;fill-opacity:1"
       id="path196254"
       d="M445.921,196.026c4.084-2.366,7.277-8.61,9.264-12.533c4.465-8.519,2.182-23.977,2.182-23.977   s9.171-45.183,2.177-56.672c-2.834-4.886-7.709-9.502-10.896-14.167c1.982-9.557-4.359-14.714-4.359-14.714s0.679-5.04-1.636-9.808   c-2.226-4.313-11.443-14.713-11.443-14.713s78.467-10.035,92.09-10.897c13.623-1.409,54.493,7.673,64.848,20.162   c10.079,12.488,29.379,96.497,29.426,118.248c-0.047,21.389-2.181,22.342-2.181,22.342s-92.093,17.21-108.983,31.061   c-17.167,13.396-17.438,8.719-17.438,8.719l-19.073-8.719l-16.891-17.983l-7.63-3.27   C445.378,209.104,448.374,203.204,445.921,196.026L445.921,196.026z"
       fill="#CCCCCC" /><path
       style="fill:#d6bf97;fill-opacity:1"
       id="path196256"
       d="M229.043,272.315c0,0-16.801-12.669-41.959-12.534c-24.793-0.135-67.025,15.802-67.025,15.802   l70.84,207.617c0,0-0.227-36.237,5.449-43.049s7.084-9.263,7.084-9.263s-7.084,2.452-4.905-6.54   c2.362-9.173,14.85-29.607,15.803-36.51c1.317-6.72-8.9-27.155,4.905-37.599c6.734-4.96,7.765-16.803,6.539-23.432   C224.729,319.814,221.323,277.811,229.043,272.315L229.043,272.315z"
       fill="#CCCCCC" /><path
       style="fill:#c2a779;fill-opacity:1"
       id="path196258"
       d="M190.899,483.201c0,0-0.227-36.237,5.449-43.049s7.084-9.263,7.084-9.263s-7.084,2.452-4.905-6.54   c2.362-9.173,14.85-29.607,15.803-36.51c1.317-6.72-8.9-27.155,4.905-37.599c6.734-4.96,7.765-16.803,6.539-23.432   c-1.045-6.994-4.451-48.998,3.269-54.493c0,0-16.801-12.669-41.959-12.534c0,0-4.359,46.41,0,57.762   c4.723,11.353,5.858,17.029,0,22.888c-5.495,5.494-11.171,12.306-7.628,22.341c3.269,10.399,10.081,17.211,5.449,26.155   c-4.451,9.22-8.992,21.707-4.359,22.887c4.45,1.09,6.72,1.09,4.359,6.541c-2.18,5.902-1.045,32.014,0,36.511   C186.13,459.451,190.899,483.201,190.899,483.201L190.899,483.201z"
       fill="#999999" /><path
       style="fill:#c2a779;fill-opacity:1"
       id="path196260"
       d="M331.489,429.797c0,0-71.566,25.113-92.092,37.601c-20.344,12.487-53.266,23.84-64.846,37.598   c-11.125,13.489-18.673,48.509-13.623,61.032c11.58,27.383,38.826,41.006,56.127,35.421   c12.333-4.291,133.506-60.485,133.506-60.485s-29.625-20.558-34.875-45.228C307.603,459.451,331.489,429.797,331.489,429.797   L331.489,429.797z"
       fill="#B3B3B3" /><path
       style="fill:#c2a779;fill-opacity:1"
       id="path196262"
       d="M326.04,559.489L212.15,610.714c0,0-15.802-0.274-23.977-5.994c-7.72-5.633-23.431-16.894-23.431-16.894   l79.559,239.221l120.973-58.852L326.04,559.489L326.04,559.489z"
       fill="#B3B3B3" /><path
       style="fill:#d6bf97;fill-opacity:1"
       id="path196264"
       d="M668.794,351.875l-46.862-2.725c0,0-5.541-8.9-14.711-13.622c-8.994-4.36-20.164-5.45-20.164-5.45   s-6.993-14.804-9.264-20.706c-2.271-5.45-36.329-45.184-43.047-52.858c-6.905-8.219-30.518-15.258-30.518-15.258   s15.666-11.125,55.581-22.341c0,0,42.958-8.084,50.679-9.264c8.173-1.09,30.244,54.73,34.33,63.755   C650.449,285.758,668.794,351.875,668.794,351.875L668.794,351.875z"
       fill="#CCCCCC" /><path
       id="path196266"
       d="M518.941,387.294c-5.877,20.337,1.596,29.871,8.718,43.595c3.836-5.726,11.797-8.04,15.806-7.085   c43.17,8.419,70.727-35.14,70.838-67.569c-0.23-5.728-11.539-13.475-19.617-16.349c-9.688-3.832-20.512-5.237-29.972-1.089   c-8.513,3.441-20.864,8.187-26.154,29.969l-6.541,8.721L518.941,387.294L518.941,387.294z"
       fill="#808080"
       style="" /><path
       id="path196268"
       d="M499.324,389.473c-31.873,2.695-29.19,26.042-23.43,39.235c2.74,6.325,10.227,11.076,15.801,11.989   c5.601,0.889,25.508-1.355,21.252-5.45C492.661,414.862,502.879,389.378,499.324,389.473L499.324,389.473z"
       fill="#808080"
       style="" /><path
       id="path196270"
       d="M525.481,434.158c-20.332-20.432-10.114-45.916-13.622-45.773l-8.719,1.634   c3.712-0.074-6.506,25.41,14.166,45.774L525.481,434.158L525.481,434.158z"
       fill="#999999"
       style="" /><path
       style="fill:#e7d7cf;fill-opacity:1"
       id="path196272"
       d="M444.833,90.312c3.549,2.977,4.527,5.097,8.175,9.265c7.646,9.211,5.161,19.918,5.448,29.425   c0.736,14.268-4.579,28.271-4.906,43.049c0.224,4.677,0.012,12.027-5.448,16.348l1.089-0.545   c-2.942,4.502-17.689,7.175-26.156,5.449c0.931,3.718,8.256,2.893,7.63,3.815c-9.619,9.011-22.152,1.737-29.971-4.36   c18.417,21.538,29.82,6.097,40.322,4.36c1.461-0.256,3.036,4.578,2.727,6.538c-1.656,7.229-7.67,11.506-11.444,12.534   c-32.069,7.558-79.022,3.785-97.541-28.336c-0.876-1.8,1.263-4.175,2.179-3.813c4.528,2.355,7.75,7.115,11.443,10.898   c-4.42-16.672-31.044-12.887-25.61-33.786c0.172-0.523,5.213-1.253,5.993-1.635c5.318-2.52,5.556-14.628,1.09-18.527   c-0.93-0.892-2.985-1.224-3.814-2.724c12.1,22.768-7.048,22.878-13.623,19.617c-16.702-9.002-19.579-27.158-14.713-34.875   c4.94-7.844,16.139-5.233,21.251,10.899c14.479-16.212,6.272-13.73,4.359-23.433c-0.416-0.899,7.195-7.388,4.905-10.897   c-2.955-5.085-2.97-11.466-1.636-15.259c3.926-9.295-2.736-16.117,1.636-25.61c4.92-11.39,9.39-25.509,23.976-20.162   c-0.373-2.478,7.7-2.112,9.264-2.181c10.242-0.583,38.637-2.302,47.953,1.09c9.246,3.224,26.497,20.012,30.516,28.88l0.545,4.904   c0.751,4.308,0.632,1.737,1.634,4.36C450.009,80.483,446.538,89.17,444.833,90.312L444.833,90.312z"
       fill="#D9D9D9" /><path
       style="fill:#58658e;fill-opacity:1"
       id="path196274"
       d="M741.27,483.746c0.948,2.415,3.592,6.094,4.904,5.994c11.192-1.268,16.684-2.396,30.517-6.539   c0.703-0.033,10.867-2.266,11.988-2.725c37.442-5.206,61.909-8.834,93.181-29.426c9.104-5.98,15.964-17.133,18.527-24.521   l1.091-5.45c-2.617-30.383-19.623-40.333-31.061-48.496c-18.236-12.486-36.688-19.587-58.852-23.978   c-3.028-0.637-2.936-6.559-6.54-8.173c-2.314-1.006-3.934,0.37-4.36,2.179c-0.685,1.324,0.014,3.779-0.544,3.813   c-7.221,3.391-13.518,6.958-20.705,8.175c-21.038,3.963-45.553,2.024-65.394,2.723c-34.168,1.79-57.25-2.19-74.651,0   c-5.326,0.911-0.335,4.279,2.177,7.085c14.796,17.927,17.424,48.536,11.446,68.115c-1.644,5.117-3.253,10.9-4.905,16.348   c-6.239,18.321-6.479,27.84-13.623,43.049c-3.656,6.891-7.964,17.67-17.981,20.707c0.416-0.551-10.349,3.489-25.069-26.156   c-2.47-4.592-7.561-14.142-9.264-21.798c-4.536-20.832-3.636-32.966-3.813-32.15c0.11,2.186-6.128-0.75-5.993,1.636   c1.798,54.871,34.37,85.908,44.14,86.642c26.521-2.292,46.109-38.764,69.204-56.672c9.784-7.481,18.541-13.709,26.157-23.976   c1.087-1.638,2.304-3.118,4.359-2.18c3.22,1.727-4.932,11.104-8.175,13.624c2.72,2.412,17.819-3.302,11.988,5.994   c-1.604,2.398-11.104-3.553-15.803,1.636C704.214,459.225,734.666,464.129,741.27,483.746L741.27,483.746z"
       fill="#999999" /><path
       style="fill:#58658e;fill-opacity:1"
       id="path196276"
       d="M485.701,484.289c7.058-10.125,10.199-24.02,4.904-32.693l0,0c0,0,14.53-0.091,28.336-4.36   c3.702-1.567,11.17-4.813,21.253-10.355c10.353-5.811,14.813-3.541,22.886-3.268c3.36-0.273,5.448,17.982,5.448,17.982   c5.994,22.37,5.537,29.731,18.528,51.767l5.449,5.997c6.229,5.394,9.141,12.234,15.26,15.799c8.333,4.718,18.47-1.517,26.156-6.539   c21.467-13.766,36.979-31.438,55.583-47.954c3.219-2.829,7.707-7.208,13.077-5.448c5.346,1.841,11.623,2.743,15.257,5.448   c42.475,33.758,25.177,92.051,43.594,137.324l1.635,4.903c6.348,35.652,52.636,149.528,53.403,152.033   c7.43,21.605,1.068,2.003,13.078,38.689c-16.289,2.754-32.736-0.249-49.589,2.725c-21.941,4.162-41.711,9.051-63.21,14.166   c-12.534,3.01-35.676,17.432-48.501,21.254l-11.441-26.155l3.813-4.36l-17.437-34.875c-6.514-30.943-15.599-56.401-19.618-85.552   c-3.672-23.382-2.379-49.288-4.359-73.566c-1.159-12.268-9.53-23.292-17.982-34.33c-1.74-2.078-0.115-5.948-1.091-8.718   c-0.554-1.824-2.878-2.884-3.813-4.905c-2.018-2.637,3.974-4.438,1.636-5.993c-1.369-0.906,0.036,0.021-0.545-1.636   c-1.157-2.174,0.358-3.48,2.179-4.358c2.211,4.65,5.279-1.696,7.631,3.27c-3.122,1.361-2.021,4.252-2.183,6.539   c3.588-3.67,6.588-8.82,3.816-13.078c-1.155-1.756-10.466-1.747-9.809-4.359c1.948-5.483,10.416-8.169,7.629-13.623   c-0.492-1.072-4.725-1.485-5.995,1.634c-6.23-5.381-7.459-28.639-8.719-18.526c-1.517,12.937-0.604,13.91-4.904,20.707   c-7.441-5.563-11.712-13.952-18.528-20.162c-0.541,4.622,0.542,8.585,4.904,11.444c-25.777,5.5-84.584,0.364-110.072,2.179   C476.22,524.247,484.174,520.894,485.701,484.289L485.701,484.289z"
       fill="#999999" /><path
       style="fill:#4c5a86;fill-opacity:1"
       id="path196278"
       d="   M633.922,518.619c21.467-13.766,36.979-31.438,55.583-47.954c3.219-2.829,7.707-7.208,13.077-5.448   c5.346,1.841,11.623,2.743,15.257,5.448c10.527,8.495,17.433,18.456,22.341,29.429c0,0-12.494-17.203-35.964-14.714   C676.036,488.812,633.922,518.619,633.922,518.619L633.922,518.619z"
       stroke-miterlimit="2"
       stroke-linejoin="round"
       stroke-linecap="round"
       stroke-width="0.4"
       stroke="#666666"
       fill="#666666" /><path
       style="fill:#d6bf97;fill-opacity:1"
       id="path196280"
       d="M819.194,532.242c2.509,93.046,2.174,145.58,3.813,234.864c-10.834-19.647-15.593-49.095-21.251-64.849   c-20.428-55.769-43.565-116.411-44.138-163.477c0,0-2.679-12.818-0.545-12.531c0,0,14.848,9.265,29.424,9.265   C801.438,535.515,819.194,532.242,819.194,532.242L819.194,532.242z"
       fill="#CCCCCC" /><path
       id="path196282"
       d="M886.764,953.469c-3.082-10.006-0.732-31.97-13.623-32.695c-3.104,0.086-8.497,3.337-13.624,3.271   c8.484,0.942,11.597-9.317,8.176-13.079c-7.705-8.352-16.72-14.938-23.433-23.977c-7.026-9.92-8.822-23.263-17.981-29.972   c-8.451-6.347-21.43-5.913-32.694-1.089c9.104-9.091,10.826-3.525,27.246-8.176c-5.353-3.357-4.307-7-7.086-12.531   c-4.785-5.966-12.456-8.822-17.983-9.81c-9.426-1.453-18.55,5.092-25.063,14.168c-2.697,4.244,2.973,10.054,0,12.532   c-2.563,2.146,0.421-1.716-2.182,0.547c-1.756,1.579-7.617-3.09-6.537,0.544c-18.808-0.146-30.923-13.521-43.597-24.521   c-4.075-2.919-9.365,2.462-13.622,0c-2.741,3.836-8.79,5.252-10.353,9.265c-1.626,3.655-3.054,7.505-4.36,11.445   c-3.803,10.228,4.832,20.69,15.258,23.43c24.761,7.494,42.292,25.912,58.306,44.684c22.269,27.081,91.971,51.305,120.43,38.145   L886.764,953.469L886.764,953.469z"
       fill="#4D4D4D"
       style="" /><path
       id="path196284"
       d="M721.109,884.808c-5.976-4.283-12.614-4.646-18.527-8.173c-0.944-0.448-3.348,2.26-2.183,3.814   c9.491,9.472,20.745,14.966,34.333,16.348C733.064,888.963,726.036,888.618,721.109,884.808L721.109,884.808z"
       fill="#4D4D4D"
       style="" /><path
       id="path196286"
       d="M743.451,844.484c3.241-7.22-7.778-15.688-10.355-19.073c-1.317-1.625-3.854,0.21-3.813,1.636   C728.523,834.548,739.602,841.467,743.451,844.484L743.451,844.484z"
       fill="#333333"
       style="" /><path
       id="path196288"
       d="M752.715,843.94c1.934,1.445,4.359-0.801,3.813-1.636c-2.243-4.818-6.572-19.245-11.988-21.252   c-2.069-1.104-6.504-1.401-5.994,1.636C739.469,828.413,747.624,840.534,752.715,843.94L752.715,843.94z"
       fill="#333333"
       style="" /><path
       id="path196290"
       d="M766.338,842.305c2.86-8.289-9.469-19.788-10.355-26.157C747.104,820.868,759.633,839.096,766.338,842.305   L766.338,842.305z"
       fill="#333333"
       style="" /><path
       id="path196292"
       d="M776.69,829.228c1.997-4.719-1.994-11.618-5.993-15.804C765.434,816.618,769.544,829.827,776.69,829.228   L776.69,829.228z"
       fill="#333333"
       style="" /><path
       id="path196294"
       d="M620.843,369.857c-4.376,17.647-17.618,29.805-23.978,41.958c33.312-18.1,43.976-58.126,22.888-57.76   C618.153,353.972,623.362,360.325,620.843,369.857L620.843,369.857z"
       fill="#4D4D4D"
       style="" /><path
       id="path196296"
       d="M346.747,227.632c20.238,10.744,43.275,29.355,58.851,31.606c6.071,1.117,0.897-9.829,1.634-33.241   c0.178-0.648-27.246-1.864-40.324-8.173c-10.515-4.926-19.792-9.023-30.516-14.712c-4.009-1.982-10.944,12.464-9.809,17.437   C327.492,223.333,334.794,221.386,346.747,227.632L346.747,227.632z"
       fill="#E6E6E6"
       style="" /><path
       id="path196298"
       d="M449.191,223.817c3.426,4.56,12.571,11.413,17.439,14.168c0.944,0.565-1.19-5.014-2.727-6.538   c-6.365-6.331-17.429-25.918-23.431-13.079C439.356,220.155,446.094,220.285,449.191,223.817L449.191,223.817z"
       fill="#FFFFFF"
       style="" /><path
       id="path196300"
       d="M561.992,333.892c5.907-1.756,15.587-1.514,15.801-3.271c0.643-2.177-0.652-3.795-3.269-8.718   c-2.763-6.014-7.052-10.965-10.354-16.892c-7.394-13.12-15.593-24.802-26.701-35.422c-1.82-1.689-3.481-3.946-5.993-4.904   c-2.193-1.038-5.129-1.186-6.539-2.725c-3.685-4.922-6.724-10.774-12.532-12.532c-13.084-3.68-26.439-2.885-38.691-7.628   c-0.369-0.316-2.036-0.241-2.178,0c-0.438,2.063-0.004,4.251-2.182,5.449c-0.386,0.473-1.313,0.266-2.18-0.545   c-3.563-3.612-5.177-10.136-11.989-9.808c-0.121,0.152-0.754-0.661-1.635-0.545c-7.328-1.064-4.202-7.444-5.993-2.18   c-0.226,0.784,0.155,1.732-0.545,1.089c0,5.646,0.301,11.413-2.723,16.348c2.138,3.952,4.614,8,5.992,11.989   c4.494,11.04,9.25,22.067,14.713,33.239c-0.048,0.355,1.41,0.182,1.637,0.546c2.618,5.16,6.062,9.547,8.173,14.711   c5.611,16.386,12.199,31.145,22.341,45.774c4.408,6.04,13.207,18.122,16.349,24.521c5.937-0.865,7.292-1.175,11.988-5.994   c3.983-4.392,6.067-8.243,7.083-11.443c2.465-6.794,6.615-10.792,10.354-17.437c1.09-1.431,3.807-2.448,3.269-3.816   c-3.703-6.561-12.729-14.182-17.438-19.616c2.298-0.409,3.668,1.651,5.45,2.179c-0.962-5.235,2.475-9.392,4.359-14.169   c0.368,0.488,0.94,1.213,0.545,1.637c-1.321,4.682-1.473,9.394,0,13.623c0.975,4.313,6.836,14.479,10.896,13.623   C553.42,340.148,557.228,335.716,561.992,333.892L561.992,333.892z"
       fill="#FFFFFF"
       style="" /><path
       id="path196302"
       d="M362.004,382.389c-19.997,3.208-31.044-0.18-35.965,0c-1.819-4.608,0.826-10.376-0.545-15.257   c-1.862-4.648-3.796-8.861-5.995-13.623c-1.115-2.679-2.358-3.965-3.27-7.085l-4.903-6.539c-0.348-3.06,6.53-7.401,6.539-10.353   c-0.037-1.337-2.131-4.286-3.814-1.637c-1.848,3.903-5.708,6.129-6.539,10.355c-2.979-2.504-7.581-4.225-10.354-6.539   c-4.563-3.728-7.819-4.412-13.077-4.359c7.696,4.692,13.679,11.619,21.795,15.803c-7.286,0.782-14.297,1.162-21.251-0.546   c1.104,3.027,3.911,3.027,7.084,3.813c3.594,1.315,10.113,0.224,13.623,1.091c5.871,2.002,11.012,9.177,13.078,15.257   c2.04,6.21,1.912,13.331,1.635,19.617c-11.851,1.656-26.401,4.674-38.145,5.996c-3.667,0.562-6.926,2.545-10.354,4.359   c-2.95,1.262-5.897,2.962-9.264,4.904c-8.755,4.608-14.241,12.459-20.708,20.163c-2.777,2.567-6.312,0.058-9.264-1.091   c-1.391-0.55-2.986-0.047-4.359,0.545c0.353,1.009,0.19,2.572,1.09,3.271c4.435,2.434,7.301,6.135,11.444,8.718   c1.837,1.262,4.353,1.25,6.539,1.089c-2.531-2.927-4.245-6.275-7.629-8.173c3.666,0.192,7.167,2.612,10.898,1.634   c-0.161-1.872-1.476-3.291-3.269-4.359c6.523-9.299,15.882-16.053,26.156-20.162c1.462-0.637,3.313,0.159,4.359-0.545   c5.89-3.173,11.558-3.686,17.983-4.905c0.935-0.359,1.667-1.83,2.724-2.18c2.33-0.229,4.478-0.539,7.084-1.088   c2.207-0.404,4.619-0.315,7.084,0c0.239,0.073,0.59,0.78,0.544,1.088c-1.25,2.113-4.649,2.82-3.813,5.45   c6.963-3.693,15.409-10.607,23.976-5.992c-2.123,1.497-4.345,2.594-5.994,4.358c10.989-1.923,20.938-8.062,32.15-6.541   c-3.98,5.244-9.297,16.483-1.09,20.165c-0.238-6.859,1.083-16.419,8.174-18.528c9.632-3.211,19.24-6.419,29.425-4.36   c-3.258,2.734-5.397,2.366-7.083,6.54c-0.407-0.177-1.729,3.042-2.181,2.725c-4.686,5.175-2.395,19.991-4.359,21.251   c0.241-0.222-0.113-0.125,0,0c-2.949-0.125-5.946-1.605-8.719-1.089c-11.618,1.945-21.279,1.629-32.15,5.448   c-12.011,4.002-24.287,6.76-35.964,11.444c-3.805,1.614-7.132,4.051-10.898,4.904c-4.857,1.712-9.687,3.672-14.713,5.45   c-15.579,4.319-29.458,11.698-44.684,17.437c-0.157,0.357-0.15,1.996-0.545,2.179c-3.294,0.069-6.003,1.786-8.718,3.271   c-8.176,4.073-15.346,8.725-23.432,13.624c-1.821,1.029-2.853,3.336-4.905,4.359c-0.208-10.649-1.337-21.073,1.636-31.062   c0.442-1.517,2.25-2.166,2.724-3.813c1.12-5.523,4.24-9.783,5.449-15.257c0.398-1.5,0.684-3.537,0-4.359   c-1.889-1.561-2.706-3.021-1.634-5.45c2.552-7.344,5.011-14.755,9.264-21.795c3.082-4.748,6.063-8.863,7.083-14.169   c1.149-5.461-6.938-7.863-2.724-21.796c0.368-1.967,0.17-4.199,0.544-5.996c1.072-2.612,3.946-3.224,5.449-4.904   c5.212-5.563,3.582-12.883,4.36-20.162c0.254-1.311,1.099-2.393,1.634-3.269c1.167,4.354,3.091,9.066,2.725,12.532   c0.713-9.39,0.243-19.062-0.545-28.88c-0.181-4.829-2.082-9.792-2.724-15.257c-1.397-9.37,0.732-18.922,4.903-27.246   c6.372-0.897,4.054-6.512,5.995-9.264c4.741-7.617,21.312-12.05,34.331-13.624c5.059-0.713,6.784-6.416,10.354-9.263   c3.053-3.007,8.485-2.246,11.988-3.814c7.436-4.095,14.953-7.985,22.887-10.354c8.846-2.521,17.73,2.222,25.612,7.084   c9.041,5.413,16.458,11.815,25.611,16.893c4.103,2.304,8.122,4.681,12.533,6.539c7.204,3.094,14.045,7.637,21.797,8.719   c0.752-0.06,2.863-1.685,3.27-3.816c0.962-3.317,2.461-6.314,1.634-9.807c1.544,0,2.918-1.324,4.36-0.546   c0.717,0.257,1.175-0.479,1.09,0c1.266,1.783,1.053,4.104,1.634,5.45c1.768,5.426,3.254,10.829,4.359,16.346   c0.838,6.694,1.237,12.998,1.635,19.619c0.516,8.62,3.668,16.7,4.359,25.611c2.255,20.427,2.957,40.18,6.539,61.031   c0.386,2.749-0.036,5.353-0.544,8.173c-4.717-2.55-8.887-7.918-14.713-7.629c-1.321,0.135-4.055-0.708-4.904-1.089   c-4.232-0.365-3.501-4.663-3.815-9.263c-0.143-0.801-0.574-3.868-0.544-4.905c-1.488-7.017-2.974-15.073-5.994-21.253   c-0.797-2.585-1.042-7.223-5.449-6.538c-16.162,2.605-32.025,0.773-47.953,3.271c0.095,8.576,2.854,16.583,3.814,25.066   c0.328,3.054-0.483,2.8,0.544,5.448c0.325,1.667,3.137,7.036,4.905,8.175L362.004,382.389L362.004,382.389z"
       fill="#FFFFFF"
       style="" /><path
       style="fill:#a6bda3;fill-opacity:1"
       id="path196304"
       d="M440.473,231.992c-3.499-2.779-6.751-5.816-10.898-6.54c-4.014-0.454-7.942-0.949-11.443,0.545   c-0.606,0.287,0.774,0.838,0.544,1.635c7.044-0.769,13.294,2.899,19.618,6.539c0.523,0.426,2.098,1.106,2.723,0.546   C441.999,234.097,440.98,232.208,440.473,231.992L440.473,231.992z"
       fill="#E6E6E6" /><path
       style="fill:#a6bda3;fill-opacity:1"
       id="path196306"
       d="M441.016,241.255c-6.991-2.849-13.953-8.292-21.794-5.995c-0.734,0.33,0.712,2.285,0.544,3.815   c7.466-0.197,14.209,3.456,21.796,4.359C442.38,243.28,441.664,241.582,441.016,241.255L441.016,241.255z"
       fill="#E6E6E6" /><path
       style="fill:#a6bda3;fill-opacity:1"
       id="path196308"
       d="M434.479,249.974c-4.504-1.325-9.312-0.467-13.623-2.724C424.552,251.855,429.586,250.759,434.479,249.974   L434.479,249.974z"
       fill="#E6E6E6" /><path
       style="fill:#a6bda3;fill-opacity:1"
       id="path196310"
       d="M438.293,255.423c-4.445,2.713-7.188,7.401-11.443,10.898c-0.264-0.841-1.382-1.714-0.546-2.177   C429.911,260.95,433.168,254.032,438.293,255.423L438.293,255.423z"
       fill="#E6E6E6" /><path
       style="fill:#a6bda3;fill-opacity:1"
       id="path196312"
       d="M447.012,266.865c-6.227,6.145-11.173,13.214-15.258,20.708c-1.618-1.349-3.227-3.617-1.635-5.448   c3.265-3.967,5.869-7.913,8.719-12.535c1.224-1.929,2.998-3.803,4.904-5.447C444.524,265.041,445.841,265.768,447.012,266.865   L447.012,266.865z"
       fill="#E6E6E6" /><path
       style="fill:#a6bda3;fill-opacity:1"
       id="path196314"
       d="M451.917,281.034c0.123,1.34,1.617,2.923,1.091,3.814c-7.583,8.718-12.47,18.157-17.983,27.791   c-0.468-2.461-2.219-4.942-0.546-7.084C439.992,296.684,443.943,287.471,451.917,281.034L451.917,281.034z"
       fill="#E6E6E6" /><path
       style="fill:#a6bda3;fill-opacity:1"
       id="path196316"
       d="M438.293,330.077c1.06-3.905,2.676-7.602,4.905-11.442c4.705-6.547,8.79-12.559,14.714-17.439   c1.366-0.958,3.956,2.484,3.269,3.271c-4.297,6.524-8.583,11.987-13.623,17.983c-3.878,5.29-4.847,11.933-9.264,16.891   C436.639,336.276,437.912,332.724,438.293,330.077L438.293,330.077z"
       fill="#E6E6E6" /><path
       style="fill:#a6bda3;fill-opacity:1"
       id="path196318"
       d="M468.263,323.538c-6.295,5.417-7.197,9.945-11.987,13.624c-3.97,2.715-6.924,6.393-9.809,10.354   c-2.368,3.686-4.98,7.339-4.904,11.989c-0.098,1.419,0.813,3.091,1.091,4.902c2.217-5.797,5.862-10.541,9.809-15.803   c2.664-3.872,6.701-6.125,9.81-9.808c2.855-4.415,8.008-6.403,9.264-11.443c0.776-2.499-0.351-5.255-1.091-7.629   C469.724,320.729,469.434,322.21,468.263,323.538L468.263,323.538z"
       fill="#E6E6E6" /><path
       style="fill:#a6bda3;fill-opacity:1"
       id="path196320"
       d="M476.983,346.97c-9.852,13.163-24.883,28.945-31.062,44.141c2.23-0.382,3.955,3.36,5.45,1.634   c5.309-6.191,12.17-22.57,17.438-28.88c3.697-4.144,7.899-7.601,11.444-12.534c1.446-2.054-0.625-5.182-1.636-8.173   C478.397,344.62,477.788,345.686,476.983,346.97L476.983,346.97z"
       fill="#E6E6E6" /><path
       style="fill:#a6bda3;fill-opacity:1"
       id="path196322"
       d="M460.635,402.008c-6.541,3.228,19.721-30.75,18.528-28.881c2.412-4.466,7.925-9.137,9.809-13.622   c0.69,0.829,4.262,4.658,3.814,5.447c-4.823,6.078-22.983,30.932-26.155,35.421C459.038,412.531,461.907,402.848,460.635,402.008   L460.635,402.008z"
       fill="#E6E6E6" /><path
       style="fill:#e7d7cf;fill-opacity:1"
       id="path196324"
       d="M411.592,385.66c10.306,2.334,17.286,8.926,26.156,12.532c7.8,3.118,9.925,5.643,20.164,11.444   c13.552,16.248,17.037,26.203,20.705,37.6c3.321,10.999,9.021,27.062-4.904,33.24c2.864-7.952,0.944-16.127-1.089-23.976   c-2.045,10.913-1.681,13.552-3.271,20.707c-1.938,8.747-5.832,13.008-10.897,19.616c-2.592,2.551-6.473,8.929-11.444,7.086   c-2.355-0.57-1.304-7.101,0-8.173c14.395-13.474,17.095-29.334,11.988-47.955c-0.339-0.521-2.824-2.354-2.725-1.09   c0.235,12.941,3.069,24.013-3.813,34.33c-5.006,8.166-11.641,24.566-20.708,19.616c3.74-17.775,19.041-36.519,8.173-55.581   c0.765,19.732-8.625,36.869-15.257,54.492c-1.133,2.633-6.51,0.567-6.539,0c-2.977-9.938,6.604-31.959,1.09-53.402   c-11.303-4.2-23.387-10.039-28.881-21.251c-4.383-8.973-0.622-18.817,2.725-27.246C395.492,391.498,401.844,383.744,411.592,385.66   L411.592,385.66z"
       fill="#D9D9D9" /><path
       style="fill:#e5cbbd;fill-opacity:1"
       id="path196326"
       d="M406.688,431.979c8.687,2.175,17.331,1.417,20.707,4.902c8.492,8.38-4.563,65.336-8.719,63.214   c-4.954-2.155,6.061-32.506,0.546-53.949c-11.303-4.2-23.387-10.039-28.881-21.251C390.34,424.895,401.777,430.695,406.688,431.979   L406.688,431.979z"
       fill="#BFBFBF" /><path
       style="fill:#c2a779;fill-opacity:1"
       id="path196328"
       d="M32.871,127.912l-20.162,55.582c0,0,72.384,152.215,75.744,164.565   c3.451,12.625,65.936,204.346,65.936,204.346s-2.316-31.649,9.264-43.046c11.125-11.309,21.252-16.896,21.252-16.896   s-74.136-208.879-75.744-217.968C104.393,251.7,32.871,127.912,32.871,127.912L32.871,127.912z"
       fill="#B3B3B3" /><path
       id="path196330"
       d="M782.139,867.372c-4.355-5.304-9.082-9.446-13.623-14.17c31.6,16.991,43.729,67.126,86.097,61.577   c0.183,1.424,0.183,2.938,0,4.358c-7.773-3.544-16.725-2.316-25.063-5.992c-4.719-1.81,0.075,6.323-1.092,5.448   C809.481,903.802,797.13,885.474,782.139,867.372L782.139,867.372z"
       style="" /><path
       style="fill:#a9a59d;fill-opacity:1"
       id="path196332"
       d="M286.26,834.129c0,0-5.904,15.85-11.443,17.982c-5.813,2.408-25.112,6.949-29.426,9.265   c-4.768,2.227-11.443,4.358-11.443,4.358l253.933,60.489c0,0-3.18-14.94-7.628-17.438c-4.633-2.044-44.366-20.208-51.224-23.432   c-6.766-3.588-21.524-17.211-21.797-21.797c0.273-4.497,4.814-22.661,1.636-25.067C405.235,836.355,286.26,834.129,286.26,834.129   L286.26,834.129z"
       fill="#808080" /><path
       style="fill:#a9a59d;fill-opacity:1"
       id="path196334"
       d="M739.092,900.064l-7.087,4.363c0,0-35.011-14.715-37.054-20.165c-2.498-5.902-3.814-7.081-3.814-7.081   s-24.794-6.768-31.605-11.447c-6.812-4.403-20.436-15.756-25.065-15.8c-4.452,0.044-85.009-13.623-85.009-13.623   s-6.857,10.262-12.534,12.532c-5.676,2.271-39.135-1.672-41.957,10.354c-0.425,1.424,255.566,53.403,255.566,53.403l-8.172-14.714   L739.092,900.064L739.092,900.064z"
       fill="#666666" /><path
       style="fill:#d6bf97;fill-opacity:1"
       id="path196336"
       d="M589.237,549.138c0,0-10.31-7.947-16.893-8.174c-7.04,0.227-109.506-2.555-113.889,0   c3.797-2.172,7.673,85.007,9.263,84.461c-7.784,3.636,137.319-1.09,137.319-1.09l9.265-1.634l-11.441-22.343   c0,0-13.717-22.842-13.624-32.147c-0.093-8.856-0.093-16.803,4.36-19.073C598.227,546.867,589.237,549.138,589.237,549.138   L589.237,549.138z"
       fill="#CCCCCC" /><path
       style="fill:#c2a779;fill-opacity:1"
       id="path196338"
       d="M576.704,624.882c14.758-0.465,28.334-0.547,28.334-0.547l9.265-1.634l-11.441-22.343   c0,0-13.717-22.842-13.624-32.147c-0.093-8.856-0.093-16.803,4.36-19.073c4.629-2.271-4.36,0-4.36,0s-10.31-7.947-16.893-8.174   c-1.421,0.227-5.553,0.141-11.443,0c0,0,3.269,13.85,0,17.436c-3.543,3.226-3.543,10.037,0,13.623   c3.269,3.226,2.133,28.2,6.538,35.967C572.116,616.116,576.704,624.882,576.704,624.882L576.704,624.882z"
       fill="#999999" /><path
       style="fill:#d6bf97;fill-opacity:1"
       id="path196340"
       d="M613.213,630.874c0,0-3.634,2.271-8.175,2.181c8.576,0.09-135.725,1.604-136.229,2.179   c-0.907,1.544,8.477,135.432,8.175,135.141c7.718,2.409,155.301,6.948,156.393,3.816c1.179-3.678-13.579-55.9-13.623-62.668   C619.797,704.667,610.715,641.092,613.213,630.874L613.213,630.874z"
       fill="#CCCCCC" /><path
       style="fill:#c2a779;fill-opacity:1"
       id="path196342"
       d="   M577.793,633.6c16.609-0.32,29.791-0.455,27.245-0.545c4.541,0.09,8.175-2.181,8.175-2.181c-2.498,10.218,6.584,73.793,6.54,80.648   c0.044,6.768,14.802,58.99,13.623,62.668c-0.369,0.964-20.06,1.152-45.229,0.545c-12.625-21.329-9.574-59.931-11.443-74.653   C573.252,674.015,577.793,633.6,577.793,633.6L577.793,633.6z"
       stroke-miterlimit="2"
       stroke-linejoin="round"
       stroke-linecap="round"
       stroke-width="0.2"
       stroke="#999999"
       fill="#999999" /><path
       style="fill:#d6bf97;fill-opacity:1"
       id="path196344"
       d="M450.825,538.781c0,0-13.812,10.289-46.862,12.534c-19.249,1.469-41.797-6.135-44.138-4.358   c-11.209,7.979-22.705,10.127-22.887,14.712c0.182,4.497,34.239,204.303,37.6,204.347c3.451-0.044,88.594,6.768,93.181,1.091   C470.404,763.692,452.077,539.685,450.825,538.781L450.825,538.781z"
       fill="#CCCCCC" /><path
       id="path196346"
       d="M440.473,108.839c-1.874,3.643-6.27,4.325-12.533,3.27c0.19,0.238-1.042,0.238-1.09,0   c-1.235-1.167-1.308,0.109-3.269,0.544c-1.528,1.219-2.008,1.515-2.18,2.18c-1.694,3.501-7.823,6.119-5.449,8.72   c2.644,3.659,8.552,1.625,13.623,2.723c2.243,0.244,4.647-0.142,6.539-1.089c2.109-1.509,2.954-4.514,4.359-7.083   c0.497-0.548,2.042-1.521,2.18-2.18c0.769-3.921-1.371-5.327-2.18-8.719C440.045,107.432,440.657,108.389,440.473,108.839   L440.473,108.839z"
       fill="#B3B3B3"
       style="" /><path
       id="path196348"
       d="M401.239,85.953c-7.968,0.108-15.56,2.285-22.342,7.628c-0.63,0.162-2.292,0.72-2.179-1.09   c0.94,0.513,2.136-0.207,2.725-0.545c1.65-3.199,2.29-7.175,5.449-8.719c3.835-2.1,7.899-4.509,12.533-4.36   c-5.332,2.927-13.537,3.806-15.258,10.898c6.614-3.687,13.905-6.513,21.797-5.993c-0.233,6.828-5.013,14.814-11.988,16.346   c4.377-2.004,6.037-6.005,8.719-9.808C401.513,89.308,402.392,85.695,401.239,85.953L401.239,85.953z"
       fill="#949494"
       style="" /><path
       style="fill:#e5cbbd;fill-opacity:1"
       id="path196350"
       d="M369.089,89.766l3.813,1.091l3.815,1.634c0.94,0.513,2.136-0.207,2.725-0.545   c1.65-3.199,2.29-7.175,5.449-8.719c3.835-2.1,7.899-4.509,12.533-4.36c-5.332,2.927-13.537,3.806-15.258,10.898   c6.614-3.687,13.905-6.513,21.797-5.993c-0.256,8.758-5.932,14.871-11.443,16.346h0.546c10.467,2.578,9.047-11.896,15.803-3.813   c2.599,3.714,7.151,21.149,6.539,19.072c-0.522-1.896,5.721-9.56,4.359-10.898c-0.908-1.499-3.746-18.812-3.813-21.253   c-0.5-2.667-3.906-6.357-6.54-8.719c-2.474-2.747-8.718-2.179-8.718-2.179c-7.161,1.013-14.443,0.288-21.797,1.089   c-8.601,1.385-12.538,11.75-20.162,15.802c-0.251,0.303-2.032,0.705-2.725,0.545l9.265-0.545L369.089,89.766L369.089,89.766z"
       fill="#BABABA" /><path
       id="path196352"
       d="M420.856,122.462c0.556,0.102,1.408,0.266,1.635,0c1.23-2.42,4.368-5.404,5.995-3.815   c2.366,2.305-2.421,5.237-5.995,4.906L420.856,122.462L420.856,122.462z"
       fill="#333333"
       style="" /><path
       id="path196354"
       d="   M437.204,145.894c-7.661,1.79-9.958,2.206-14.713,4.904c-9.623,5.974-13.577,1.303-15.803,3.27   c0.885-2.646,9.193-3.165,11.444-4.905c2.175-1.788,3.417-4.025,5.993-5.994c0.992-0.949,2.459-1.728,3.815-1.635   c3.013-0.488,6.675-0.616,9.264-1.09c1.702-0.357,3.263-0.458,4.358,0.545c2.053,1.195,3.643,2.814,5.45,4.36   c1.352,0.696,4.17,2.663,5.45,3.27c-0.944,0.276-5.288-1.598-5.996-1.635C443.205,147.027,442.316,146.109,437.204,145.894   L437.204,145.894z"
       stroke-miterlimit="2"
       stroke-linejoin="round"
       stroke-linecap="round"
       stroke-width="0.8"
       stroke="#000000"
       fill="#666666"
       style="" /><path
       style="fill:#6f5b54;fill-opacity:1"
       id="path196356"
       d="   M431.754,129.001c-2.039-0.022-3.669,1.541-4.904,3.27c-0.33-0.726,0.045-1.407,0.544-2.18c-2.175,0.352-3.305,2.169-4.904,3.27   c0.241-0.681,0.367-1.242,0-1.635c-2.343,1.919-4.287,4.579-6.539,7.084c0.393-1.633,1.376-2.949,2.724-4.36   c-4.346,2.06-6.655,6.077-8.718,9.809c-0.279-1.102,0.511-2.032,0.544-3.27c-1.879,3.076-4.157,5.886-7.083,7.629   c-1.365,0.78-2.221,2.132-2.725,3.814c0.141-1.071,0.043-1.943,0.545-2.724c-2.152,2.483-2.507,5.638-4.36,8.173   c-0.506,1.23-1.959,0.871-3.27,1.09c2.818,0.672,5.708,0.622,8.174-0.545c1.21-0.211,1.917-1.391,3.27-2.18   c-0.245,0.897-0.245,1.558,0,2.18c3.197-2.999,6.042-6.562,8.718-10.354c-0.522,1.834-1.104,3.505-1.09,5.449   c2.471,0.31,5.292,0.051,7.629-1.089c3.29-1.558,5.617-4.409,6.539-7.629c0.395,1.105,0.449,3.075-0.546,3.815   c2.642-0.47,5.023-2.654,5.995-5.449c-0.406,0.943,0,1.903,0.545,1.634c1.112-0.325,1.568-2.197,1.634-3.814   c1.781,1.888,4.458,2.249,7.083,2.725c-0.53-1.555-2.014-2.347-2.723-3.815c1.559,1.875,3.621,2.814,5.45,4.36   c1.038,0.465,2.288,1.193,3.813,1.09c-1.153-0.008-1.281-1.322-2.181-1.09c1.028-0.615,2.018-0.417,2.727,0   c2.276,1.518,4.136,4.544,7.083,2.725c-0.877,0.132-1.635,0.132-2.181,0c1.222-0.263,2.544-0.332,3.816-0.544   c1.832-0.325,2.898-1.88,4.359-2.181c-1.622-0.064-3.288,0.254-4.905-1.089c0.304-0.123,0.397-0.216,0.546-0.545   c-0.81-0.013-1.308-0.613-1.636-1.089c-0.762-1.294-1.901-2.1-2.181-3.27c0.034,0.442,0.903-0.247,1.089,0.544   c0.135-2.582-2.559-3.694-3.814-4.903c-1.201-1.265-3.02-2.287-4.359-1.636c0.293-0.343,0.945-0.053,1.636,0   c-0.111-0.276-0.12-0.69,0-0.545c-2.818-0.974-5.49-1.396-8.175-2.179c0.596,0.117,1.022-0.202,1.634-0.545   c-1.856-0.799-3.934-0.401-5.994,0c-0.561-0.147-0.867,1.204-1.634,1.09C433.005,129.819,432.303,128.862,431.754,129.001   L431.754,129.001z"
       stroke-miterlimit="2"
       stroke-linejoin="round"
       stroke-linecap="round"
       stroke-width="0.8"
       stroke="#333333"
       fill="#808080" /><path
       id="path196358"
       d="M439.928,156.793c-2.956,0.591-5.624,0.34-8.718,1.089c-2.427,0.2-10.93-0.422-13.078-0.544   c0.501-0.188-0.048,2.632,0.544,3.27c1.285,1.503,1.337,2.01,3.27,2.725c0.838,0.011,1.374-0.594,2.18-0.545   c6.538-1.821,16.656-4.139,23.433-3.27c-1.233-0.977-1.925-2.42-1.636-4.358c-2.114,1.312-3.021,1.04-5.448,1.635H439.928   L439.928,156.793z"
       fill="#666666"
       style="" /><path
       id="path196360"
       d="   M317.32,138.81c-4.076-2.111-4.661-6.459-7.083-9.809c-1.791-2.259-4.621-3.683-6.54-1.635c-2.077,1.683-3.78,3.656-3.27,6.541   c2.252,7.898,6.757,16.535,15.258,17.982c-5.783-2.296-8.917-8.442-11.443-14.169c-1.09-2.238-0.488-5.139,1.634-7.083   c0.123-0.317,1.184-0.267,1.091,0c2.007,3.922,4.682,6.921,8.173,9.809c0.377,0.18-0.081,1.324,0,2.18   c1.256,1.798,3.599,2.104,5.995,1.635c1.024,0.044,0.273,2.482,1.635,3.27C325.37,142.956,320.411,140.74,317.32,138.81   L317.32,138.81z"
       stroke-miterlimit="2"
       stroke-linejoin="round"
       stroke-linecap="round"
       stroke-width="0.3"
       stroke="#D9D9D9"
       fill="#666666"
       style="" /><path
       style="fill:#e2a5a5;fill-opacity:1;filter:url(#filter197454);opacity:0.265"
       id="path196362"
       d="M402.329,137.175c-2.771,7.243-16.394,16.893-33.786,10.354c-17.8-7.084-23.477-34.33-16.347-41.958   c7.629-7.129,41.119-4.858,49.588-2.181C415.452,108.089,405.235,129.66,402.329,137.175L402.329,137.175z"
       fill="#D9D9D9" /><path
       style="fill:#e2a5a5;fill-opacity:1;filter:url(#filter197458);opacity:0.265"
       id="path196406"
       d="M459,125.187c0.025,4.83-1.935,10.485-7.083,4.36c-4.909-5.987-9.774-25.303-8.718-29.97   c0.514-4.444,8.7-0.328,10.897,2.179C458.071,106.044,458.454,120.218,459,125.187L459,125.187z"
       fill="#D9D9D9" /><path
       id="path196450"
       d="M384.891,100.12c-3.311,0.185-8.525-2.536-7.084-5.449c-7.454-1.582-15.112-0.117-22.887-0.543   c-2.767,1.194-4.529,1.521-7.083,2.724c8.127-1.227,14.953-3.022,27.246-0.545c0.83,0.323,0.181,1,1.089,1.634   c-5.872,0.346-11.887,0.099-17.438,2.725c7.278-0.347,14.481-3.138,21.797-0.545c0.926,0.407,2.167,0.298,3.27,0"
       fill="#333333"
       style="" /><path
       id="path196452"
       d="M435.568,81.593c4.127-1.637,8.683-1.468,13.08,1.635c0.548,0.325,1.557,0.439,1.089-1.09   c-0.308,0.543-1.084,0.151-1.089,0c-1.765-2.695-2.709-6.374-4.359-7.083c-2.785-1.026-5.408-2.32-8.175-1.091   c3.61,1.57,8.317,0.32,10.353,6.541c-4.261-1.677-9.882-2.262-14.167,0.544c1.237,7.836,4.27,10.249,12.533,9.263   c-3.81-0.826-6.597-1.355-8.719-4.359C435.575,85.203,434.554,81.936,435.568,81.593L435.568,81.593z"
       fill="#7D7D7D"
       style="" /><path
       style="fill:#6f5b54;fill-opacity:1"
       id="path196454"
       d="M401.239,64.701   c-2.101-0.676-4.529-0.993-6.54-1.636c-12.732-2.069-26.263,1.871-31.06,10.354c-3.1,4.879-4.697,11.42-7.63,16.347   c0.693,0.16,2.474-0.242,2.725-0.545c7.625-4.052,11.561-14.417,20.162-15.802c7.354-0.801,14.637-0.077,21.797-1.089   C403.409,72.009,403.889,65.54,401.239,64.701L401.239,64.701z"
       stroke-miterlimit="2"
       stroke-linejoin="round"
       stroke-linecap="round"
       stroke="#000000"
       fill="#666666" /><path
       style="fill:#e5cbbd;fill-opacity:1"
       id="path196456"
       d="M429.029,70.15c1.762,0.857,3.097-0.403,5.449-1.09c3.975-0.444,4.427,0.89,6.538,0.544l-0.543,0.546   l1.089,3.813c-2.612-0.787-2.681-1.229-5.448,0c3.61,1.57,8.317,0.32,10.353,6.541c-4.261-1.677-9.882-2.262-14.167,0.544   c1.237,7.836,4.838,9.681,12.533,9.809l0,0c0,0-3.796,1.168-7.084,0.544c-4.34-1.015-6.775-8.244-7.628-2.181   c-0.468,4.169,5.449,9.265,5.449,9.265c-5.798-5.061-9.875-11.287-10.354-18.528c-0.111-2.459,0.877-10.458,1.635-13.078   L429.029,70.15L429.029,70.15z"
       fill="#B3B3B3" /><path
       id="path196458"
       d="   M435.024,120.283c5.449-6.121,9.753-13.697,0.544-21.797c-5.798-5.061-9.875-11.287-10.354-18.528   c-0.111-2.459,0.877-10.458,1.635-13.078"
       stroke-miterlimit="2"
       stroke-linejoin="round"
       stroke-linecap="round"
       stroke-width="0.8"
       stroke="#000000"
       fill="none"
       style="" /><path
       style="fill:#6f5b54;fill-opacity:1"
       id="path196460"
       d="M429.029,70.15   c1.762,0.857,4.232-0.97,6.539-1.636c0.16,0.225,8.716,2.446,10.898,0.546c0.934-0.675,0.725-2.543,0.546-3.815   c-0.807-2.174-2.728-4.097-4.359-4.359c-5.719-0.061-12.49-1.219-16.349,3.27C425.613,65.036,427.162,68.858,429.029,70.15   L429.029,70.15z"
       stroke-miterlimit="2"
       stroke-linejoin="round"
       stroke-linecap="round"
       stroke="#000000"
       fill="#666666" /><path
       style="fill:#6f5b54;fill-opacity:1"
       id="path196462"
       d="M423.581,40.179c-6.383-13.433-19.325-23.829-34.331-25.61c1.712,1.271,2.841,3.167,4.359,4.903   c-4.06-2.936-8.43-5.315-13.078-5.994c-14.166-2.155-28.064-3.603-41.958-0.546c2.767,1.746,6.348,0.918,9.264,2.725   c-4.192-0.517-8.042-0.719-11.989,0c-9.545,2.386-17.694,5.624-26.157,9.265c2.899,2.24,6.665-0.16,10.354,0.543   c-15.98,0.95-29.049,10.8-35.42,25.067c-8.571,19.511-9.026,40.994-8.718,61.577c-0.082,3.065,0.583,6.064,1.634,8.719   c-0.154-4.49,1.104-8.63,4.36-11.988c-0.79,0.788-1.713,1.361-1.635,2.179c-0.332,4.021-0.592,7.748-1.09,11.444   c-0.783,8.203,2.862,15.689,6.54,22.887c6.611,11.346,17.862,17.83,24.521,28.88c0.542,0.88,1.396,2.171,1.09,3.27   c0.342,0.125,0.722,0.125,1.09,0c-0.281-1.782-0.446-3.192,0.544-4.904c1.278,5.133,6.213,10.008,11.443,10.898   c-4.47-5.756-9.159-12.681-7.084-20.162c-4.611-0.083-9.731-2.846-13.078-6.539c-6.621-6.915-13.405-14.825-13.623-24.522   c-0.236-10.538,2.438-13.603,15.257-17.982c3.146-1.36,10.879,5.974,14.169,13.078c0.065-2.73,9.325-5.714-1.635-17.436   c-1.743-1.796-5.839-5.107-8.173-5.995c-3.678-1.276-7.138-1.064-10.899-0.545c6.317-2.306,14.271-1.719,20.162,2.725   c1.994,1.894,5.777-1.361,6.54-3.27c0.629-3.027-2.611-8.042-3.815-9.808c-3.065-4.408-9.149-4.294-14.167-3.815   c4.359-1.227,10.525-1.132,15.257,0c2.623-5.871,3.512-13.991-0.544-18.527c-4.675-5.156-16.251-7.551-14.713-16.346   c1.693,6.607,8.017,11.931,15.257,11.442c0.062-7.881,3.074-14.74,8.174-21.796c1.226-1.79-6.04-2.659-8.718-4.36   c-1.84-1.923-4.849-1.013-7.63-1.089c6.222-1.452,12.424,1.192,17.982,0.543c2.008-0.327,4.014-3.787,5.994-4.359   c7.425-3.061,15.419,0.019,23.433-1.635c2.277-0.64,4.704-0.852,7.083-1.635c0.99-0.177,2.525-1.302,1.635-2.18   c-1.978-2.751-5.026-3.901-7.628-5.449c4.332-0.501,7.483,3.462,10.898,5.994c2.582,1.553,7.763,3.665,8.718,0.545   c0.572-1.099-2.717-2.159-3.813-3.815c-0.084-0.508,1.189-0.667,1.634-0.545c8.382,6.446,15.598,5.136,25.066,7.084   c2.304,0.682,7.538,0.056,9.264,1.09C418.067,36.456,420.663,38.753,423.581,40.179L423.581,40.179z"
       fill="#999999" /><path
       id="path196464"
       d="M321.135,78.324c-8.584-5.081-17.154,0.613-23.977,5.993c-2.754,2.19-5.958,2.739-9.264,2.725   c4.796,2.262,9.82-1.762,14.713-0.546c-6.977,1.704-12.474,7.978-20.162,7.085c1.185,2.904,3.815,4.217,6.539,4.359   c5.858,0.509,10.368-4.465,15.803-2.724c-4.7,0-7.603,4.582-11.988,5.994c-3.871,0.629-6.993,0.215-10.354-0.545   c2.945,4.827,7.646,10.013,14.168,8.719c-3.299,1.896-6.512-0.259-9.809,0c0.532,1.316,1.608,2.046,2.725,2.725   c4.598,4.484,11.368,3.739,16.347,2.179c3.146-1.36,11.019,6.114,14.169,13.078c0.065-2.73,9.325-4.579-1.635-17.436   c-1.662-1.87-5.839-5.107-8.173-5.995c-3.678-1.276-7.138-1.064-10.899-0.545c6.317-2.306,14.271-1.719,20.162,2.725   c1.994,1.894,5.777-1.361,6.54-3.27c0.629-3.027-2.611-8.042-3.815-9.808c-3.065-4.408-9.149-4.294-14.167-3.815   c4.359-1.227,10.525-1.132,15.257,0c1.072-2.613,1.905-5.526,2.18-8.173L321.135,78.324L321.135,78.324z"
       fill="#B3B3B3"
       style="" /><path
       style="fill:#3c435a;fill-opacity:1"
       id="path196466"
       d="M647.544,425.983c-9.426,0.382-20.753-1.9-27.245,3.271c-4.303,3.814-8.374-0.86-13.078,3.814   c-4.923,5.371-15.313-4.632-21.799-1.635c-1.204,27.602,12.157,58.784,23.433,70.295c4.437,4.495,11.315,4.191,14.167-0.545   C636.741,478.376,643.048,451.294,647.544,425.983L647.544,425.983z"
       fill="#333333" /><path
       style="fill:#58658e;fill-opacity:1"
       id="path196468"
       d="M592.506,509.359l-5.449-5.997c-12.991-22.035-12.534-29.396-18.528-51.767c0,0-2.088-18.255-5.448-17.982   c-8.072-0.273-12.533-2.543-22.886,3.268c-10.083,5.542-17.551,8.788-21.253,10.355c-13.806,4.269-28.336,4.36-28.336,4.36l0,0   c5.599,14.037,0.315,21.279-4.904,32.693c-0.986,34.751-10.773,41.022-22.887,49.592c25.466-1.793,58.729,1.64,110.618-2.726   c-4.362-2.859-5.445-6.822-4.904-11.444c6.816,6.21,11.087,14.599,18.528,20.162c4.301-6.797,3.388-0.959,4.904-20.707"
       fill="#808080" /><path
       style="fill:#8d99be;fill-opacity:1;filter:url(#filter197434);opacity:0.547"
       fill="#999999"
       id="path196470"
       d="M826.278,422.17c-29.382,3.224-179.235-24.022-155.302-19.619c23.747,4.678,53.26-31.545,147.672-40.869   c37.175-3.501,83.477,41.728,71.386,56.673C880.905,429.935,855.93,418.582,826.278,422.17L826.278,422.17z" /><path
       style="fill:#8d99be;fill-opacity:1;filter:url(#filter197430);opacity:0.547"
       fill="#999999"
       id="path196514"
       d="M741.27,533.334c0,10.127-2.271,58.941-12.532,61.032c-10.174,2.45-38.555-37.282-44.139-57.761   c-5.769-20.391,3.441-41.942,34.874-39.782C734.593,497.975,741.27,523.026,741.27,533.334L741.27,533.334z" /><path
       id="path196558"
       d="M794.673,933.851c-31.834-15.756-59.08-55.49-40.87-63.211c9.543-4.419,53.311,36.103,61.031,44.14   c8.174,7.856,56.027,11.998,52.313,30.514C864.01,962.32,809.165,941.259,794.673,933.851L794.673,933.851z"
       fill="#4D4D4D"
       style="" /><path
       id="path196560"
       d="M755.438,872.275c8.946-4.009,51.53,35.093,59.396,43.051c0.014-0.113,0.185,0.039,0.546,0   c8.714,7.52,53.246,11.853,50.133,29.425c-0.208,0.676-0.482,1.407-1.09,2.18c-7.181,12.055-55.937-6.682-69.206-13.08   c-0.453-0.446-0.84-0.644-1.09-1.09C764.001,917.408,737.994,879.813,755.438,872.275L755.438,872.275z"
       fill="#4F4F4F"
       style="" /><path
       id="path196562"
       d="M756.528,873.909c8.894-3.592,50.293,34.086,57.761,41.417c0.19,0.249,0.356,0.401,0.545,0.542   c8.467,7.02,51.626,11.343,49.043,27.791c-0.387,1.001-0.643,1.709-1.089,2.181c-6.916,11.887-54.251-6.237-67.027-12.532   c-0.461-0.289-0.833-0.478-1.088-0.547C765.841,917.714,740.167,881.366,756.528,873.909L756.528,873.909z"
       fill="#525252"
       style="" /><path
       id="path196564"
       d="M758.163,876.09c8.295-3.722,48.512,32.529,55.581,39.778c0.363,0.071,0.529,0.225,0.545,0.545   c8.218,6.514,50.007,10.833,47.41,26.701c-0.027,0.779-0.257,1.467-0.545,2.179c-6.652,11.177-52.568-6.334-64.848-12.532   c-0.471-0.125-0.829-0.31-1.09-0.544C767.682,918.018,742.338,882.918,758.163,876.09L758.163,876.09z"
       fill="#555555"
       style="" /><path
       id="path196566"
       d="M759.251,877.724c8.244-3.308,47.277,31.521,54.493,38.689c-0.01-0.111,0.159,0.04,0.545,0   c7.424,6.556,47.842,10.862,45.773,26.157c-0.204,0.557-0.417,1.221-0.546,1.636c-6.389,11.001-50.881-5.893-62.664-11.989   c-0.481,0.033-0.83-0.143-1.092-0.547C769.522,918.323,744.511,884.473,759.251,877.724L759.251,877.724z"
       fill="#585858"
       style="" /><path
       id="path196568"
       d="M760.888,879.904c7.646-3.439,45.489,29.97,52.313,36.509c0.167,0.255,0.33,0.402,0.544,0.547   c7.175,6.053,46.224,10.349,44.139,24.521c0.162,0.88-0.031,1.521-0.543,2.179c-5.583,10.291-48.654-5.99-59.942-11.442   c-0.487-0.353-0.825-0.521-1.091-0.547C771.362,918.629,746.684,886.022,760.888,879.904L760.888,879.904z"
       fill="#5B5B5B"
       style="" /><path
       id="path196570"
       d="M762.521,881.54c7.049-3.026,43.713,28.958,50.134,35.42c0.339,0.073,0.503,0.22,0.545,0.544   c6.927,5.549,44.602,9.839,43.049,23.431c-0.022,0.659-0.193,1.277-0.545,1.636c-5.319,10.121-46.967-5.547-57.761-10.9   c-0.497-0.192-0.821-0.354-1.091-0.543C773.2,918.935,748.853,887.574,762.521,881.54L762.521,881.54z"
       fill="#5E5E5E"
       style="" /><path
       id="path196572"
       d="M763.61,883.721c6.998-3.159,42.475,27.403,49.045,33.783c-0.034-0.108,0.131,0.036,0.545,0   c6.131,5.591,42.437,9.872,41.412,22.888c-0.198,0.436-0.35,1.033-0.543,1.634c-5.058,9.405-45.283-5.646-55.58-10.898   c-0.508-0.035-0.817-0.188-1.092-0.544C775.043,919.24,751.024,889.131,763.61,883.721L763.61,883.721z"
       fill="#616161"
       style="" /><path
       id="path196574"
       d="M765.247,885.354c6.398-2.744,40.691,26.396,46.864,32.149c0.143,0.256,0.302,0.4,0.544,0.545   c5.887,5.086,40.817,9.358,39.78,21.252c0.164,0.76,0.031,1.332,0,1.634c-4.796,9.237-43.602-5.203-53.404-9.808   c-0.516-0.421-0.81-0.567-1.088-0.544C776.881,919.544,753.198,890.683,765.247,885.354L765.247,885.354z"
       fill="#646464"
       style="" /><path
       id="path196576"
       d="M766.881,887.533c5.803-2.872,38.911,24.844,44.685,30.516c0.317,0.075,0.476,0.218,0.546,0.545   c5.635,4.583,39.198,8.85,38.688,20.162c-0.017,0.538-0.127,1.089-0.546,1.636c-3.987,8.521-41.368-5.304-50.677-9.809   c-0.525-0.26-0.806-0.4-1.088-0.547C778.724,919.853,755.371,892.235,766.881,887.533L766.881,887.533z"
       fill="#676767"
       style="" /><path
       id="path196578"
       d="M767.97,889.169c5.752-2.459,37.677,23.832,43.596,29.425c-0.052-0.107,0.103,0.035,0,0   c5.389,4.622,37.579,8.881,37.599,19.617c-0.194,0.318-0.287,0.847-0.545,1.09c-3.725,8.353-39.68-4.857-48.498-9.265   c-0.53-0.099-0.802-0.232-1.09-0.545C780.562,920.156,757.544,893.787,767.97,889.169L767.97,889.169z"
       fill="#6A6A6A"
       style="" /><path
       id="path196580"
       d="M769.605,890.805c5.154-2.045,35.895,22.822,41.416,27.789c0.119,0.26,0.273,0.396,0.544,0.544   c4.593,4.12,35.415,8.372,35.42,17.982c0.168,0.641,0.097,1.147,0,1.636c-3.464,7.637-37.996-4.958-46.32-9.265   c-0.54,0.059-0.796-0.066-1.088,0C782.399,920.462,759.717,895.339,769.605,890.805L769.605,890.805z"
       fill="#6D6D6D"
       style="" /><path
       id="path196582"
       d="M771.243,892.98c4.553-2.172,34.11,21.271,39.232,26.157c0.294,0.078,0.447,0.216,0.546,0.547   c4.345,3.613,33.796,7.854,34.328,16.891c-0.01,0.421-0.063,0.903,0,1.092c-3.197,7.469-36.312-4.514-44.685-8.176   c-0.004-0.324-0.248-0.443-0.544-0.542C784.24,920.766,761.891,896.894,771.243,892.98L771.243,892.98z"
       fill="#707070"
       style="" /><path
       id="path196584"
       d="M772.331,894.619c4.503-1.762,32.875,20.261,38.145,25.065c-0.075-0.104,0.077,0.031,0,0   c4.097,3.653,32.177,7.889,33.241,15.802c-0.191,0.743-0.224,1.202-0.545,1.634c-2.396,6.757-34.084-4.612-41.961-8.171   c-0.013-0.168-0.244-0.281-0.546-0.547C786.081,921.071,764.063,898.445,772.331,894.619L772.331,894.619z"
       fill="#737373"
       style="" /><path
       id="path196586"
       d="M773.966,896.797c3.906-1.892,31.09,18.707,35.964,22.888c0.102,0.262,0.25,0.394,0.546,0.543   c3.303,3.152,30.013,7.379,31.06,14.714c0.175,0.523,0.162,0.957,0,1.634c-2.128,6.041-32.397-4.711-39.778-8.173   c-0.022-0.006-0.239-0.111-0.546,0C787.921,921.379,766.231,899.998,773.966,896.797L773.966,896.797z"
       fill="#767676"
       style="" /><path
       id="path196588"
       d="M775.602,898.431c3.309-1.477,29.311,17.699,33.782,21.797c0.275,0.079,0.425,0.216,0.546,0.546   c3.056,2.646,28.395,6.866,29.972,13.621c-0.008,0.3,0.002,0.715,0,1.092c-1.865,5.871-30.712-4.271-37.599-7.629   c-0.032,0.155-0.238,0.055-0.546,0C789.761,921.685,768.404,901.55,775.602,898.431L775.602,898.431z"
       fill="#797979"
       style="" /><path
       id="path196590"
       d="M776.69,900.611c3.258-1.608,28.073,16.146,32.148,20.162c0.448-0.103,0.597,0.029,0.545,0   c2.808,2.689,26.776,6.897,28.338,12.534c0.359,0.622,0.386,1.017,0.545,1.634c-1.604,5.157-29.028-4.371-35.419-7.084   c-0.039-0.23-0.232-0.322-0.545-0.546C791.603,921.988,770.578,903.102,776.69,900.611L776.69,900.611z"
       fill="#7C7C7C"
       style="" /><path
       id="path196592"
       d="M802.848,927.312c-9.405-5.017-30.098-22.655-24.523-25.066c2.781-1.246,28.448,16.629,31.06,19.073   c2.174,2.344,27.934,6.996,26.701,12.532C835.256,939.018,807.389,929.268,802.848,927.312L802.848,927.312z"
       fill="#808080"
       style="" /><path
       id="path196594"
       d="M408.868,379.121c-3.926,0.741-7.861,2.439-11.989,2.18c-1.164-0.39-2.531-0.235-3.813-0.546   c0.156,0.081,0.342,0.081,0.544,0c-8.941,0.158-17.904-0.536-26.701,1.635c-5.763-12.396-6.696-15.583-8.719-28.334   c14.212-0.744,28.604,2.017,42.504-3.271c0.545-0.16,2.243-0.56,2.179,0.545C403.661,360.667,406.057,370.086,408.868,379.121   L408.868,379.121z"
       fill="#FFFFFF"
       style="" /><path
       id="path196596"
       d="M402.873,348.059c-0.286-2.715-1.83-4.95-1.634-7.627c-14.768,3.138-29.819,1.951-44.684,3.813   c1.549,2.32,1.237,6.22,2.179,6.54c10.953,1,18.938-0.812,29.426-1.089C392.271,349.879,398.326,346.251,402.873,348.059   L402.873,348.059z"
       fill="#FFFFFF"
       style="" /><path
       style="fill:#a6bda3;fill-opacity:1"
       id="path196598"
       d="M499.324,378.029c0.148-1.011-1.148-3.505-1.634-4.359c-2.089,4.51-5.331,6.911-7.63,11.444l4.905-0.545   L499.324,378.029L499.324,378.029z"
       fill="#E6E6E6" /><path
       style="fill:#d6bf97;fill-opacity:1"
       id="path196600"
       d="M441.562,505.543c-6.928,2.817-11.493-0.119-15.258-0.547c-6.307,1.846-9.956,0.875-12.533-3.813   c-9.147-13.884,5.199-33.198-1.634-47.409c-5.874-11.692-30.075-12.619-29.971-29.971c-14.406-0.725-29.025,0.989-41.959,6.539   c-8.925,21.993-24.103,46-14.167,68.661c8.328,18.478,20.269,28.086,37.6,38.145c9.533,5.251,23.343,6.157,33.239,5.994   c21.568-0.159,47.889-4.541,66.481-17.984c10.645-8.195,17.838-35.327,8.175-38.144c-9.942,15.422-13.934,23.551-25.069,21.798   C444.768,508.641,443.181,505.688,441.562,505.543L441.562,505.543L441.562,505.543z"
       fill="#CCCCCC" /><path
       style="fill:#c2a779;fill-opacity:1"
       id="path196602"
       d="M340.207,430.343c12.934-5.55,21.877-8.399,41.959-6.539c-0.104,17.353,24.097,18.279,29.971,29.971   c6.833,14.211-7.513,33.525,1.634,47.409c2.577,4.688,6.226,5.658,12.533,3.813c3.765,0.428,8.33,3.364,15.258,0.547l0,0   c1.619,0.145,3.206,3.098,4.904,3.27c11.135,1.753,15.126-6.376,25.069-21.798c9.663,2.817,2.47,29.949-8.175,38.144   c-8.205,5.752-4.324-4.245-20.708-0.542c-0.532,0.251-12.737,2.681-14.167-3.271c-6.38,1.347-16.743,3.167-19.073-5.448   c-16.513-1.385-11.041-24.668-14.167-36.51c-2.496-8.801-7.2-17.74-14.713-21.797c-11.761-6.26-24.622-8.313-32.695-19.071   c-1.22-1.205-6.779-5.807-6.54-8.175H340.207L340.207,430.343z"
       fill="#999999" /><path
       style="fill:#d6bf97;fill-opacity:1"
       id="path196604"
       d="M848.619,477.207c-3.599,1.995-7.066,2.334-13.078,3.813c-25.025,6.537-38.516,8.817-59.396,11.443   c-8.557,1.401-16.885,3.932-25.067,5.995c2.642,7.626,3.205,13.065,4.359,20.707c3.481,0.507,6.979,2.717,9.264,3.816   c7.415,3.253,13.026,4.34,20.707,4.901c14.991,0.591,29.103,0.364,40.87-6.539c8.822-5.185,16.339-14.424,20.707-23.976   C849.504,491.43,848.61,483.394,848.619,477.207L848.619,477.207z"
       fill="#CCCCCC" /><path
       style="fill:#c2a779;fill-opacity:1"
       id="path196606"
       d="M846.985,497.369c2.519-5.939,1.625-13.976,1.634-20.162c-3.599,1.995-7.066,2.334-13.078,3.813   c-25.025,6.537-38.516,8.817-59.396,11.443c-8.557,1.401-16.885,3.932-25.067,5.995c2.642,7.626,3.205,13.065,4.359,20.707   L846.985,497.369L846.985,497.369z"
       fill="#999999" /><path
       style="fill:#e9d9bd;fill-opacity:1;opacity:0.845;filter:url(#filter197386)"
       fill="#CCCCCC"
       id="path196608"
       d="M142.945,142.624c-8.521,16.271-8.573,86.977-30.516,68.116C81.687,184.72,60.118,108.657,74.831,88.132   c14.803-20.344,92.324-17.12,103.535-11.444C214.512,96.17,153.208,123.416,142.945,142.624L142.945,142.624z" /><path
       style="fill:#e9d9bd;fill-opacity:1;opacity:0.845;filter:url(#filter197390)"
       inkscape:connector-curvature="0"
       id="path196652"
       d="m 529.25086,113.198 c -16.938,-8.976 -84.09,-15.152 -69.75,-32.694 19.525,-24.304 88.169,-36.434 110.076,-21.797 21.81,14.533 31.628,81.552 27.789,90.457 -12.183,30.024 -48.243,-25.558 -68.115,-35.966 l 0,0 z" /><path
       style="fill:#e9d9bd;fill-opacity:1;opacity:0.845;filter:url(#filter197394)"
       fill="#CCCCCC"
       id="path196696"
       d="M606.13,224.362c16.026,7.886,23.981,85.357,15.259,90.457c-9.047,5.244-71.1-43.412-65.393-58.851   C564.245,234.188,590.462,216.173,606.13,224.362L606.13,224.362z" /><path
       style="fill:#c2a779;fill-opacity:1"
       id="path196730"
       d="M236.127,63.065c21.901,1.819,37.054,3.815,37.054,3.815s-3.042,32.696-4.359,41.959   c-0.953,8.9,8.128,19.117,8.174,26.156c-0.046,6.584,19.254,29.29,25.066,33.785c5.54,4.587,6.539,12.534,6.539,12.534h4.905   l3.269,7.084l10.354,2.18v7.628l-9.264,21.797c0,0-22.75,11.261-31.605,12.533c-9.31,0.999-13.851,13.487-25.066,14.713   c-11.489,1.044-29.426,15.803-29.426,15.803s-35.491-9.427-39.779-10.354h3.27c12.613-11.189,39.743-19.389,59.941-23.977   c14.309-10.471,25.066-5.449,25.066-5.449l15.803-15.803c0,0,2.452-5.721,0-9.264c-2.089-3.269-7.765-5.539-10.898-4.359   c-3.679,1.09-5.949-1.18-4.904-7.084c1.226-5.449-30.561-39.507-40.87-51.768c-10.126-12.715-6.539-70.84-6.539-70.84"
       fill="#999999" /><g
       id="g196732"><path
         id="path196734"
         d="M513.297,327.661C513.558,327.731,513.271,327.601,513.297,327.661L513.297,327.661z" /><polygon
         id="polygon196736"
         points="513.297,327.661 513.297,327.661 513.297,327.661  " /><path
         id="path196738"
         d="M544.332,346.648c-0.822-5.298-4.558-9.333-7.987-13.199c-1.282-1.446-2.313-3.645-4.269-4.308   c-1.51-0.511-3.082-0.39-4.591,0.017c-0.147-0.013-0.3-0.018-0.466,0.009c-3.015,0.483-8.251-0.604-12.722-0.496   c-0.112-0.451-0.426-0.845-0.999-1.009c-0.001,0-0.001-0.001-0.002-0.001c0,0,0,0,0,0.001c-0.004-0.001-0.006-0.003-0.01-0.004   c0.004,0.001,0.005,0.001,0.01,0.002c-0.117-0.109-0.223-0.232-0.323-0.354c-0.293-0.354-0.505-0.81-0.725-1.211   c-0.519-0.946-0.969-1.929-1.501-2.868c-0.731-1.29-2.924-3.353-4.081-1.526c-0.327-0.212-0.887,0.044-0.793,0.546   c0.097,0.516,0.116,1.07,0.229,1.566c0.158,0.701,0.706,1.125,1.102,1.706c0.878,1.291,1.719,2.587,2.498,3.941   c-1.922,0.79-3.258,2.273-3.487,4.937c-0.198,2.305,1.156,4.893,2.104,6.899c1.53,3.241,3.183,6.391,4.62,9.691   c3.529,8.107,7.673,16.225,10.432,24.625c0.823,2.509,4.808,1.57,4.008-0.977c-1.824-5.813-4.541-11.227-6.846-16.851   c-2.06-5.024-4.142-10.023-6.47-14.915c3.488-0.619,6.849-1.066,10.419-1.18c1.587-0.051,3.072-0.071,4.644-0.314   c0.868-0.134,1.775-0.745,2.526-1.167c1.372-0.769,2.831-1.08,4.352-1.222c1.854,2.254,3.496,4.649,4.183,7.497   c-0.118,0.44-0.077,0.907,0.204,1.301c0.072,0.101,0.144,0.202,0.216,0.303C541.93,349.944,544.695,348.99,544.332,346.648z    M523.565,338.605c-2.974,0.019-8.328-0.537-10.839,1.537c-0.164-0.327-0.314-0.659-0.481-0.984   c-1.379-2.689-2.495-5.308,0.896-5.753c0.694,1.142,0.998,2.515,1.931,3.514c0.372,0.398,0.979-0.188,0.607-0.586   c-0.813-0.871-1.256-2.003-1.912-2.982c0.02,0,0.034-0.003,0.054-0.004c1.778-0.075,3.58,0.004,5.36,0.034   c2.078,0.035,6.212,0.336,8.387-0.961c3.583-0.584,4.967,2.48,7.115,5.005C530.933,337.687,527.418,338.58,523.565,338.605z" /></g><path
       id="path196740"
       d="M405.083,252.458c-0.089-0.09-0.186-0.162-0.278-0.244c0.001-0.021,0.006-0.042,0.006-0.064  c0.023-0.725-0.638-1.526-1.412-1.462c-0.398,0.033-0.787,0.139-1.114,0.347c-0.452-0.018-0.846,0.228-1.118,0.582  c-0.031,0.014-0.067,0.017-0.097,0.033c-0.558,0.304-1.016,1.066-0.863,1.729c-0.136,0.205-0.22,0.447-0.225,0.722  c-0.013,0.741,0.609,1.427,1.368,1.417c0.011,0,0.021,0,0.032,0c0.42,0.292,0.954,0.353,1.439,0.22  c0.626,0.281,1.468,0.025,1.727-0.604C405.533,254.633,405.944,253.333,405.083,252.458z" /><path
       id="path196742"
       d="M334.882,225.727c-6.439-0.277-14.304,4.167-20.042,6.789c-3.516,1.606-7.202,2.779-10.681,4.443  c-4.029,1.927-7.677,4.867-11.466,7.22c-3.578,2.222-6.914,4.754-10.938,6.109c-3.855,1.298-7.243,2.621-10.845,4.566  c-1.953,1.055-4.219,1.656-6.257,2.567c-1.708,0.764-2.993,2.357-4.326,3.594c-2.547,2.363-6.396,4.125-9.384,5.901  c-0.689,0.41-0.983,1.001-0.992,1.587c-4.676-0.805-9.394-1.205-14.046-1.136c-2.264,0.034-2.334,3.447-0.062,3.516  c13.381,0.401,26.64,4.868,38.415,11.093c5.854,3.095,10.844,7.594,15.876,11.83c4.335,3.648,8.606,7.017,11.516,11.906  c-2.016,0.976-3.168,3.477-3.898,5.542c-1.112,3.145-2.849,5.157-5.129,7.574c-2.017,2.138-3.326,4.675-5.916,6.157  c-2.788,1.595-0.163,6.066,2.333,4.281c2.179-1.557,2.866-2.946,4.149-5.208c1.409-2.484,3.979-4.26,5.627-6.587  c1.471-2.077,2.45-9.091,4.845-9.537c1.71,0.455,3.827-1.357,2.812-3.452c-2.729-5.637-7.351-9.752-12.223-13.546  c-5.807-4.522-11.132-9.396-17.598-13.01c-6.756-3.777-14.239-6.666-21.941-8.462c1.947-0.893,3.883-1.807,5.841-2.676  c3.499-1.554,5.963-4.698,9.493-6.334c4.005-1.857,6.512-5.272,10.936-6.79c3.725-1.278,6.884-3.223,10.265-5.23  c7.309-4.34,14.33-8.362,22.153-11.648c7.051-2.961,15.32-6.049,21.667-10.31C335.388,226.258,335.303,225.745,334.882,225.727z" /><path
       id="path196744"
       d="M383.603,411.813c-5.828-2.035-12.113-1.314-18.151-0.814c-4.198,0.347-8.087,0.315-11.886,1.102  c0.839-1.193,1.567-2.435,2.496-3.575c0.937-0.226,1.765-0.64,2.432-1.554c1.006-1.379,0.588-3.224-0.533-4.375  c-0.819-0.842-2.232-0.901-3.088-0.077c-0.146-0.022-0.294-0.043-0.442-0.059c-1.464-0.158-2.52,1.117-3.392,2.078  c-1.157,1.274-2.358,2.736-3.148,4.328c-1.369,0.941-2.319,2.44-1.939,4.169c0.136,0.618,0.538,1.165,1.054,1.547  c-0.883,0.765-0.472,2.468,0.847,2.426c1.632-0.052,3.279-0.135,4.932-0.252c0.373,0.766,0.655,1.57,0.816,2.302  c0.512,2.339,4.311,1.337,3.553-0.865c-0.232-0.675-0.521-1.237-0.877-1.746c3.238-0.344,6.466-0.855,9.604-1.622  c5.818-1.421,11.999-0.028,17.697-1.38C384.438,413.24,384.376,412.083,383.603,411.813z" /><path
       id="path196746"
       d="M365.983,405.233c-0.034-0.097-0.068-0.193-0.102-0.29c0.138-0.664-0.093-1.396-0.698-1.731  c-0.183-0.26-0.425-0.435-0.702-0.548c-0.087-0.375-0.319-0.712-0.711-1.013c-0.858-0.661-1.631-0.094-2.189,0.567l0-0.004  c0.255-0.292,0.315-0.374,0.178-0.245c-0.096,0.087-0.171,0.187-0.237,0.292c-0.162,0.057-0.277,0.111-0.116,0.104  c-1.263,0.052-2.068,1.368-1.699,2.401c-0.058,0.239-0.081,0.491-0.013,0.769c0.164,0.675,0.75,1.18,1.432,1.28  c0.016,0.012,0.032,0.025,0.049,0.038c0.018,0.058,0.043,0.121,0.05,0.174c0.218,1.69,2.629,1.591,3.219,0.275  C365.399,407.22,366.325,406.213,365.983,405.233z" /><path
       id="path196748"
       d="M430.007,488.653c-2.9-0.578-5.361-2.068-7.524,0.835c-1.964,2.636-0.939,6.499-2.642,9.23  c-1.214,1.946,1.93,3.814,3.067,1.813c1.319-2.319,1.398-5.101,1.509-7.703c0.135-3.152,3.148-2.921,5.573-3.228  c-0.001-0.006-0.002-0.011-0.004-0.017C430.415,489.459,430.536,488.759,430.007,488.653z" /><path
       id="path196750"
       d="M445.021,492.105c-1.915-0.443-4.923-0.334-6.54-1.506c-0.678-0.491-1.494,0.055-1.752,0.703  c-0.574,1.441-2.095,2.465-2.714,3.979c-0.74,1.81-1.467,3.604-2.254,5.39c-0.799,1.813,1.318,3.928,2.917,2.303  c1.593-1.62,2.209-3.875,2.843-6.001c0.319-1.071,0.519-2.316,1.033-3.302c0.189-0.363,0.33-0.693,0.417-1.038  c1.846-0.207,4.213,0.303,5.895,0.531C445.476,493.247,445.611,492.243,445.021,492.105z" /><path
       id="path196752"
       d="M452.151,494.376c-1.046,1.278-1.992,2.903-3.363,3.833c-1.468,0.996-3.597,1.965-4.425,3.625  c-0.289,0.58-0.35,1.476,0.228,1.935c0.047,0.038,0.095,0.076,0.143,0.114c0.655,0.52,1.316,0.553,1.988,0.034  c0.377-0.291,0.465-0.674,0.696-1.063c0.44-0.742,1.417-1.328,2.082-1.849c1.093-0.857,1.95-1.595,2.695-2.772  c0.398-0.629,0.744-1.285,1.104-1.936c0.05,0.015,0.082,0.025,0.145,0.043c0.679,0.221,1.351,0.656,1.976,1.002  c1.134,0.626,2.647,1.399,3.953,1.399c0.062,0,0.12-0.051,0.119-0.115C459.453,496.781,453.589,492.619,452.151,494.376z" /></g></svg>